<svg width="27" height="24" viewBox="0 0 27 24" fill="none" xmlns="http://www.w3.org/2000/svg">
<path d="M25.9806 7.30933L23.7828 2.18458C23.457 1.42474 23.294 1.04479 23.0316 0.765902C22.7996 0.519412 22.5131 0.330633 22.1951 0.214685C21.8352 0.0834961 21.4215 0.0834961 20.5943 0.0834961H5.65588C4.82862 0.0834961 4.41499 0.0834961 4.05509 0.214685C3.73701 0.330633 3.45052 0.519412 3.21858 0.765902C2.95614 1.04479 2.79321 1.42472 2.46733 2.18458L0.269508 7.30933H25.9806Z" fill="#959595"/>
<path fill-rule="evenodd" clip-rule="evenodd" d="M2.28434 13.6475C2.87574 13.8643 3.51473 13.9827 4.18145 13.9827C5.27969 13.9827 6.30367 13.6605 7.16266 13.107C8.02165 13.6605 9.04563 13.9827 10.1439 13.9827C11.2421 13.9827 12.2661 13.6605 13.1251 13.107C13.9841 13.6605 15.008 13.9827 16.1063 13.9827C17.2045 13.9827 18.2285 13.6605 19.0875 13.107C19.9465 13.6605 20.9704 13.9827 22.0687 13.9827C22.7354 13.9827 23.3744 13.8643 23.9658 13.6475V20.4502C23.9658 21.6636 23.9658 22.2703 23.7295 22.7338C23.5216 23.1415 23.19 23.473 22.782 23.6807C22.3182 23.9168 21.7111 23.9168 20.4968 23.9168H5.75337C4.5391 23.9168 3.93196 23.9168 3.46817 23.6807C3.0602 23.473 2.72852 23.1415 2.52065 22.7338C2.28434 22.2703 2.28434 21.6636 2.28434 20.4502V13.6475ZM4.45243 18.0668C4.45243 17.4601 4.45243 17.1567 4.57059 16.925C4.67452 16.7212 4.84036 16.5554 5.04435 16.4516C5.27624 16.3335 5.57981 16.3335 6.18695 16.3335H10.3064C10.9136 16.3335 11.2171 16.3335 11.449 16.4516C11.653 16.5554 11.8189 16.7212 11.9228 16.925C12.041 17.1567 12.041 17.4601 12.041 18.0668V20.0168C12.041 20.6236 12.041 20.9269 11.9228 21.1587C11.8189 21.3625 11.653 21.5282 11.449 21.6321C11.2171 21.7502 10.9136 21.7502 10.3064 21.7502H6.18695C5.57981 21.7502 5.27624 21.7502 5.04435 21.6321C4.84036 21.5282 4.67452 21.3625 4.57059 21.1587C4.45243 20.9269 4.45243 20.6236 4.45243 20.0168V18.0668Z" fill="#959595"/>
<path d="M4.18139 12.5418C2.02727 12.5418 0.264462 10.8675 0.125 8.75016H26.125C25.9855 10.8675 24.2227 12.5418 22.0686 12.5418C20.8907 12.5418 19.8299 12.0412 19.0874 11.2413C18.345 12.0412 17.2841 12.5418 16.1062 12.5418C14.9283 12.5418 13.8675 12.0412 13.125 11.2413C12.3826 12.0412 11.3217 12.5418 10.1438 12.5418C8.96592 12.5418 7.90504 12.0412 7.16259 11.2413C6.42014 12.0412 5.35926 12.5418 4.18139 12.5418Z" fill="#959595"/>
</svg>
