<svg width="17" height="14" viewBox="0 0 17 14" fill="none" xmlns="http://www.w3.org/2000/svg">
<path fill-rule="evenodd" clip-rule="evenodd" d="M8.26385 6.86115C10.1825 6.86115 11.786 6.53964 12.1778 6.11004C11.8451 5.74567 10.6416 5.45872 9.11314 5.38021V6.28779C8.83952 6.30189 8.55503 6.3088 8.26357 6.3088C7.97211 6.3088 7.68762 6.30189 7.41345 6.28779V5.38021C5.88557 5.45872 4.6815 5.74567 4.34876 6.11004C4.74119 6.53964 6.34493 6.86115 8.26357 6.86115H8.26385ZM11.6727 2.58916V3.83899H9.11314V4.70567C10.911 4.79828 12.2601 5.17923 12.2701 5.63509V6.58553C12.2601 7.0414 10.911 7.42152 9.11314 7.51441V9.64142H7.41373V7.51441C5.61586 7.42179 4.26732 7.0414 4.25728 6.58553V5.63509C4.26732 5.17923 5.61586 4.79828 7.41373 4.70567V3.83899H4.85415V2.58916H11.673H11.6727ZM3.84755 0.600098H12.833C13.0478 0.600098 13.2455 0.71206 13.3526 0.893965L15.9702 5.34924C16.1057 5.58036 16.0656 5.87201 15.872 6.05917L8.6666 13.0307C8.43287 13.2566 8.05746 13.2566 7.82428 13.0307L0.627791 6.06857C0.430043 5.87671 0.392668 5.57676 0.53854 5.34454L3.33687 0.880142C3.44592 0.706531 3.63949 0.600374 3.84783 0.600374L3.84755 0.600098Z" fill="white"/>
</svg>
